<?xml version="1.0" encoding="UTF-8"?>
<svg xmlns="http://www.w3.org/2000/svg" version="1.1" viewBox="0 0 841.9 595.3">
  <!-- Generator: Adobe Illustrator 30.3.0, SVG Export Plug-In . SVG Version: 2.1.3 Build 182)  -->
  <defs>
    <style>
      .st0 {
        fill: #231f20;
      }

      .st1 {
        font-family: Inter18pt-SemiBold, 'Inter 18pt';
        font-size: 42px;
        font-weight: 600;
      }

      .st2 {
        display: none;
      }
    </style>
  </defs>
  <g id="With_Font__x28_R_x29_" class="st2">
    <g>
      <path class="st0" d="M89.5,534.6v13.2c.1,0-5.1,0-5.1,0l.3-12.7v-6.3c0,0-11.8,0-11.8,0h-10.8c0,0,0,5.9,0,5.9l.2,13.2h-5.2l.2-12.7-.2-29.6h5.3l-.2,18.7h11.2c0,0,11.3,0,11.3,0l-.2-18.7h5.3l-.3,29.1Z"/>
      <path class="st0" d="M135.8,543.7l-.4,4.1h-23.8l.3-12.7-.3-29.6h23.8l.3.5-.4,4.1-10-.2h-8.4c0,.1-.1,14-.1,14h7.9c0,.1,7,0,7,0l.4.5-.5,4.1h-7.4c0-.1-7.5,0-7.5,0v6.3c0,0,.1,8.8.1,8.8h8.4c0,0,10.2-.2,10.2-.2l.3.5Z"/>
      <path class="st0" d="M183.6,547.8h-5.4l-1-4.2-2.4-7.3-9.5-.2-8.6.2-2.6,7-1.1,4.5h-5.3l15.5-42.3h6.1l14.1,42.3ZM173.4,531.8l-6.9-20.9h-.5l-7.7,20.9h7.4c0,.1,7.6,0,7.6,0Z"/>
      <path class="st0" d="M221.9,543.8l-.5,4h-20.9l.3-12.7-.3-29.6h5.4l-.3,29.1.2,8.8h15.6l.4.5Z"/>
      <path class="st0" d="M259.4,506l-.4,4.1-7.4-.4h-4.3l-.2,24.9.2,13.2h-5.3l.4-12.7-.3-25.3h-4.3l-7.5.4-.3-.5.4-4.1h28.7l.4.5Z"/>
      <path class="st0" d="M309,534.6v13.2c.1,0-5.1,0-5.1,0l.3-12.7v-6.3c0,0-11.8,0-11.8,0h-10.8c0,0,0,5.9,0,5.9l.2,13.2h-5.2l.2-12.7-.2-29.6h5.3l-.2,18.7h11.2c0,0,11.3,0,11.3,0l-.2-18.7h5.3l-.3,29.1Z"/>
      <path class="st0" d="M417.4,506l-.4,4.1-7.4-.4h-4.3l-.2,24.9.2,13.2h-5.3l.4-12.7-.3-25.3h-4.3l-7.5.4-.3-.5.4-4.1h28.7l.4.5Z"/>
      <path class="st0" d="M461.4,547.8h-5.4l-1-4.2-2.4-7.3-9.5-.2-8.6.2-2.6,7-1.1,4.5h-5.3l15.5-42.3h6.1l14.1,42.3ZM451.2,531.8l-6.9-20.9h-.5l-7.7,20.9h7.4c0,.1,7.6,0,7.6,0Z"/>
      <path class="st0" d="M499.5,507.1l-.9,5.1-.9.3c-1.3-1-2.6-1.7-4.1-2.2-1.4-.5-2.8-.8-4.3-.8s-3,.3-4.3,1c-1.2.7-2.1,1.5-2.8,2.6-.6,1.1-1,2.2-1,3.3s.4,2.2,1.1,3.1c.7.9,1.6,1.7,2.7,2.3s2.6,1.5,4.5,2.4c2.4,1.1,4.3,2.1,5.7,3.1s2.7,2.1,3.7,3.6c1,1.5,1.6,3.2,1.6,5.3s-.6,4.2-1.8,6.1c-1.2,1.8-2.9,3.3-5,4.4-2.2,1.1-4.6,1.7-7.4,1.7s-3.8-.3-5.8-.8c-2-.5-3.9-1.2-5.6-2.2l.7-5.4.7-.3c1.5,1.5,3.2,2.6,5.1,3.3,1.9.7,3.7,1.1,5.4,1.1s3.2-.3,4.5-1c1.3-.7,2.3-1.5,3-2.6.7-1.1,1-2.3,1-3.5,0-1.8-.7-3.3-2.1-4.5-1.4-1.1-3.5-2.3-6.4-3.7-2.3-1.1-4.2-2.2-5.6-3.1-1.4-.9-2.6-2.1-3.6-3.5-1-1.4-1.5-3.2-1.5-5.2s.6-4.1,1.7-5.9c1.2-1.8,2.8-3.2,4.9-4.3,2.1-1,4.5-1.6,7.2-1.6s6.2.7,9.4,2Z"/>
      <path class="st0" d="M543,506l-.4,4.1-7.4-.4h-4.3l-.2,24.9.2,13.2h-5.3l.4-12.7-.3-25.3h-4.3l-7.5.4-.3-.5.4-4.1h28.7l.4.5Z"/>
      <path class="st0" d="M584.3,543.7l-.4,4.1h-23.8l.3-12.7-.3-29.6h23.8l.3.5-.4,4.1-10-.2h-8.4c0,.1-.1,14-.1,14h7.9c0,.1,7,0,7,0l.4.5-.5,4.1h-7.4c0-.1-7.5,0-7.5,0v6.3c0,0,.1,8.8.1,8.8h8.4c0,0,10.2-.2,10.2-.2l.3.5Z"/>
      <path class="st0" d="M668.2,510v14.7c-.1,0,7,.1,7,.1l6.9-.2.4.5-.5,4-7.3-.2h-6.7c0,0,0,5.5,0,5.5l.3,13.2h-5.3l.3-12.7-.3-29.6h22.5l.4.5-.5,4.2-9.7-.3h-7.4Z"/>
      <path class="st0" d="M731.3,527v4.8c0,5.2-1.3,9.2-4.2,12.1-2.8,2.9-6.8,4.4-12,4.4s-8.8-1.4-11.5-4.2c-2.7-2.8-4-6.7-3.9-11.7v-5.7c0,0,0-21.1,0-21.1h5.2l-.2,26.2c0,4,.8,6.9,2.6,8.9,1.8,2,4.5,3,8.1,3s6.3-.9,8.1-2.8c1.8-1.9,2.7-4.7,2.7-8.4l-.3-26.9h5.3v21.5Z"/>
      <path class="st0" d="M784.5,535.4v12.4c.1,0-5.4,0-5.4,0l-21.9-33.9h-.3v19.9c0,0,0,13.9,0,13.9h-4.8l.2-12.5v-29.8c-.1,0,5.3,0,5.3,0l21.8,33.9h.5v-33.6c0,0,4.9-.4,4.9-.4l-.3,30Z"/>
    </g>
    <g>
      <path class="st0" d="M216.9,166.6l-110.1,163.7c12.6-16.3,23.5-28.6,32.7-36.9,15.6-14.1,29.9-21.2,42.7-21.2s10.7,1.7,14.1,5.1c3.4,3.4,5.1,8.1,5.1,14.1s-8.1,21.6-24.2,41.6c-16.2,20-24.2,33.1-24.2,39.3s.7,4,2.1,5.6c1.4,1.6,3.2,2.4,5.3,2.4,12.6,0,29.4-10.5,50.4-31.5,17.1-16.9,30.5-33.2,40.1-48.8l2.2,1c-10.3,17.1-24,34.2-41.1,51.4-21.6,21.6-39.5,32.4-53.6,32.4s-10.1-1.8-13.5-5.5c-3.4-3.6-5.1-8.2-5.1-13.8,0-10.1,8.1-24.6,24.4-43.7,16.3-19,24.4-31.2,24.4-36.6s-.9-4.9-2.6-6.4c-1.7-1.5-4-2.2-6.7-2.2-13.9,0-33.2,14.2-57.8,42.7-20.5,23.8-35.2,44.7-44,62.9h-20.5c4.7-7.3,20.1-31,46.2-71.3,9.4-14.5,24.8-38.4,46.2-71.6,20.5-31.9,35.8-55.9,45.9-71.9l21.5-1Z"/>
      <path class="st0" d="M356.8,301.5c-10.5,18.8-26.3,36.9-47.5,54.2-23.8,19.5-44.9,29.2-63.6,29.2s-15.9-2.2-20.7-6.6-7.2-11-7.2-19.7c0-18.2,9.8-37.1,29.5-56.8,19.7-19.7,38.7-29.5,57.1-29.5s8.4,1.1,11.7,3.2c3.3,2.1,5,5.5,5,10,0,9.8-10.5,19.6-31.5,29.2-13.7,6.2-28.7,11.2-44.9,15.1-2.4,4.5-4.3,9.3-5.8,14.3-1.5,5-2.2,10-2.2,14.9s1.1,10.9,3.4,14.6c2.2,3.7,6.1,5.6,11.7,5.6,15.8,0,35-9.7,57.5-29.2,19-16.7,33.8-33.5,44.3-50.4l3.2,1.9ZM297.8,276.8c-7.9,0-17.8,6.3-29.5,18.9-9.8,10.7-17,20.8-21.5,30.2,12.6-2.8,24.5-7.3,35.6-13.5,15.4-8.6,23.1-17.7,23.1-27.3s-2.6-8.3-7.7-8.3Z"/>
      <path class="st0" d="M407.7,239.2l-24.3,35.6h40.8l-1.9,4.5h-41.7c-12.4,18.4-22.5,33.6-30.2,45.6-14.6,22.9-21.8,38-21.8,45.3s1.2,6.3,3.7,7.9c2.5,1.6,5.5,2.4,9.1,2.4,14.1,0,32-10.5,53.6-31.5,10.9-10.7,25.6-27.3,44-49.8l2.6,1.9c-21.2,25.8-36.3,43-45.3,51.6-22.3,21.5-41.2,32.2-56.8,32.2s-12.6-2.1-17.2-6.3c-4.6-4.2-6.9-9.6-6.9-16.3,0-10.3,8.7-28.3,26-54.1,6.6-9.7,13.3-19.3,19.9-29h-16.7l2.2-4.5h17.2c0,0,24.4-35.7,24.4-35.7h19.3Z"/>
      <path class="st0" d="M521.2,275h21.2c-20.5,28.8-32,45.1-34.3,48.7-16.7,25.2-25,41.5-25,48.7s2.6,8,7.7,8c13.7,0,33.6-15.5,59.7-46.5,10.9-13,19.9-24.8,27-35.3l2.2,1c-7.5,11.3-15.5,22.4-24.1,33.1-12.2,15.2-23.3,27.1-33.4,35.6-13.3,11.1-24.8,16.7-34.7,16.7s-9.4-1.3-12.7-4c-3.3-2.7-5-6.6-5-11.7s.5-6.3,1.6-10c.2-.4,1-2.4,2.2-5.8-12.2,10.9-20,17.7-23.4,20.2-10.5,7.5-19.9,11.2-28.2,11.2s-11.8-2.2-15.6-6.6c-3.7-4.4-5.6-10.1-5.6-17.2,0-17.5,9.5-36.7,28.6-57.5,19-20.8,37.3-31.1,54.9-31.1s22.7,6.7,26.3,20.2l10.6-17.8ZM431,376.9c13.7,0,28.8-10.9,45.3-32.6,15.8-20.9,23.8-38.6,23.8-53.1s-1.2-7.7-3.5-10.2c-2.4-2.6-5.7-3.8-9.9-3.8-14.8,0-29.7,10.7-44.9,32-14.3,20.1-21.5,37.8-21.5,53.1s.7,8.3,2.2,10.9c1.5,2.6,4.4,3.8,8.7,3.8Z"/>
      <path class="st0" d="M560.7,279.3v-4.5h24.1c21.6-34.9,37-57.8,46.2-68.7,22.9-27.2,45-40.8,66.4-40.8s11.6,1.4,16.2,4.2c4.6,2.8,6.9,7.2,6.9,13.2s-1.6,9.4-4.8,12.8c-3.2,3.4-7.4,5.1-12.5,5.1.9-3.6,1.5-6.7,2.1-9.4.5-2.6.8-5.2.8-7.8,0-9.1-4.3-13.7-12.8-13.7s-21.8,7-34.7,21.1c-9.4,10.2-20.2,25.2-32.4,44.8-7.7,13-15.4,26-23.1,39h70v4.5h-71.9c-25.7,44.5-41.3,71.1-46.9,79.6-21.6,33.6-42.6,59.3-62.9,77-26.7,23.3-53.8,35-81.2,35s-23.1-3-32.1-9c-10.5-7.1-15.7-16.5-15.7-28.2s3.3-18,10-22.6c6.6-4.6,15.5-6.9,26.6-6.9v2.9c-6.4,0-11.7,2.5-15.9,7.5-4.2,5-6.3,10.7-6.3,17.1,0,10.9,3.1,19.4,9.3,25.5,6.2,6.2,14.8,9.3,25.7,9.3,21.8,0,45.1-12.5,69.7-37.5,18.2-18.6,38-45,59.4-79.2,13.9-23.5,27.8-47,41.7-70.5h-21.8Z"/>
      <path class="st0" d="M679.8,274.8c-16.3,20.8-28.2,36.7-36,47.7-17.8,24.9-26.6,40.8-26.6,47.7s2.9,9.3,8.7,9.3c14.5,0,33.1-14.1,55.5-42.2,9.8-12.2,24.3-33.1,43.3-62.5h22.5c-12,16-23.9,32-35.6,47.8-17.1,24.4-25.7,40.8-25.7,49.1s2.8,8.7,8.3,8.7c13.5,0,33.5-15.3,60-45.9,10.5-12.2,19.7-23.9,27.6-35l3.5,1.3c-17.8,23.3-31.6,40.2-41.4,50.7-21.2,22.3-38.5,33.4-52,33.4s-10.4-1.6-14-4.7-5.3-7.5-5.3-13.3,1.6-13.7,4.8-19.3c-10.1,11-18.4,19.1-25,24.3-11.1,8.6-21.7,13-31.8,13s-10.4-1.3-13.8-4c-3.4-2.7-5.1-6.8-5.1-12.4,0-10.7,10.8-31.1,32.4-61.2,7.9-10.7,15.9-21.6,24.1-32.5h21.5Z"/>
    </g>
    <path class="st0" d="M549.8,68.2l-31.5-35.3h-60.4l-25.9,20.9v24.1l29.2-23.4c2.8-2.2,6.3-3.5,9.9-3.5h30.9c4.4,0,8.6,1.8,11.6,5l3.6,3.9c5,5.3,5.7,13.3,1.8,19.4l-37.6,58.6-111.8-103-4.7-4.7-3.7,4.5h0c0,.1-.1,0-.1,0l-68.6,83.5,41.2,33.1h58l37.2-37h-25.5l-16.5,16.5c-3,3-7,4.6-11.2,4.6h-30.8c-2.9,0-5.7-.8-8.2-2.3-.8-.5-1.6-1.1-2.3-1.7l-6.4-5.6c-6-5.3-7.1-14.3-2.6-20.9l40.6-58.9,112,103.2h0s5,4.6,5,4.6l3.5-4.6h0s63.1-81.1,63.1-81.1Z"/>
    <text class="st1" transform="translate(786.1 254.1) scale(.6)"><tspan x="0" y="0">Ⓡ</tspan></text>
  </g>
  <g id="Font_Outlined_x28_R_x29_">
    <g>
      <path class="st0" d="M89.5,534.6v13.2c.1,0-5.1,0-5.1,0l.3-12.7v-6.3c0,0-11.8,0-11.8,0h-10.8c0,0,0,5.9,0,5.9l.2,13.2h-5.2l.2-12.7-.2-29.6h5.3l-.2,18.7h11.2c0,0,11.3,0,11.3,0l-.2-18.7h5.3l-.3,29.1Z"/>
      <path class="st0" d="M135.8,543.7l-.4,4.1h-23.8l.3-12.7-.3-29.6h23.8l.3.5-.4,4.1-10-.2h-8.4c0,.1-.1,14-.1,14h7.9c0,.1,7,0,7,0l.4.5-.5,4.1h-7.4c0-.1-7.5,0-7.5,0v6.3c0,0,.1,8.8.1,8.8h8.4c0,0,10.2-.2,10.2-.2l.3.5Z"/>
      <path class="st0" d="M183.6,547.8h-5.4l-1-4.2-2.4-7.3-9.5-.2-8.6.2-2.6,7-1.1,4.5h-5.3l15.5-42.3h6.1l14.1,42.3ZM173.4,531.8l-6.9-20.9h-.5l-7.7,20.9h7.4c0,.1,7.6,0,7.6,0Z"/>
      <path class="st0" d="M221.9,543.8l-.5,4h-20.9l.3-12.7-.3-29.6h5.4l-.3,29.1.2,8.8h15.6l.4.5Z"/>
      <path class="st0" d="M259.4,506l-.4,4.1-7.4-.4h-4.3l-.2,24.9.2,13.2h-5.3l.4-12.7-.3-25.3h-4.3l-7.5.4-.3-.5.4-4.1h28.7l.4.5Z"/>
      <path class="st0" d="M309,534.6v13.2c.1,0-5.1,0-5.1,0l.3-12.7v-6.3c0,0-11.8,0-11.8,0h-10.8c0,0,0,5.9,0,5.9l.2,13.2h-5.2l.2-12.7-.2-29.6h5.3l-.2,18.7h11.2c0,0,11.3,0,11.3,0l-.2-18.7h5.3l-.3,29.1Z"/>
      <path class="st0" d="M417.4,506l-.4,4.1-7.4-.4h-4.3l-.2,24.9.2,13.2h-5.3l.4-12.7-.3-25.3h-4.3l-7.5.4-.3-.5.4-4.1h28.7l.4.5Z"/>
      <path class="st0" d="M461.4,547.8h-5.4l-1-4.2-2.4-7.3-9.5-.2-8.6.2-2.6,7-1.1,4.5h-5.3l15.5-42.3h6.1l14.1,42.3ZM451.2,531.8l-6.9-20.9h-.5l-7.7,20.9h7.4c0,.1,7.6,0,7.6,0Z"/>
      <path class="st0" d="M499.5,507.1l-.9,5.1-.9.3c-1.3-1-2.6-1.7-4.1-2.2-1.4-.5-2.8-.8-4.3-.8s-3,.3-4.3,1c-1.2.7-2.1,1.5-2.8,2.6-.6,1.1-1,2.2-1,3.3s.4,2.2,1.1,3.1c.7.9,1.6,1.7,2.7,2.3s2.6,1.5,4.5,2.4c2.4,1.1,4.3,2.1,5.7,3.1s2.7,2.1,3.7,3.6c1,1.5,1.6,3.2,1.6,5.3s-.6,4.2-1.8,6.1c-1.2,1.8-2.9,3.3-5,4.4-2.2,1.1-4.6,1.7-7.4,1.7s-3.8-.3-5.8-.8c-2-.5-3.9-1.2-5.6-2.2l.7-5.4.7-.3c1.5,1.5,3.2,2.6,5.1,3.3,1.9.7,3.7,1.1,5.4,1.1s3.2-.3,4.5-1c1.3-.7,2.3-1.5,3-2.6.7-1.1,1-2.3,1-3.5,0-1.8-.7-3.3-2.1-4.5-1.4-1.1-3.5-2.3-6.4-3.7-2.3-1.1-4.2-2.2-5.6-3.1-1.4-.9-2.6-2.1-3.6-3.5-1-1.4-1.5-3.2-1.5-5.2s.6-4.1,1.7-5.9c1.2-1.8,2.8-3.2,4.9-4.3,2.1-1,4.5-1.6,7.2-1.6s6.2.7,9.4,2Z"/>
      <path class="st0" d="M543,506l-.4,4.1-7.4-.4h-4.3l-.2,24.9.2,13.2h-5.3l.4-12.7-.3-25.3h-4.3l-7.5.4-.3-.5.4-4.1h28.7l.4.5Z"/>
      <path class="st0" d="M584.3,543.7l-.4,4.1h-23.8l.3-12.7-.3-29.6h23.8l.3.5-.4,4.1-10-.2h-8.4c0,.1-.1,14-.1,14h7.9c0,.1,7,0,7,0l.4.5-.5,4.1h-7.4c0-.1-7.5,0-7.5,0v6.3c0,0,.1,8.8.1,8.8h8.4c0,0,10.2-.2,10.2-.2l.3.5Z"/>
      <path class="st0" d="M668.2,510v14.7c-.1,0,7,.1,7,.1l6.9-.2.4.5-.5,4-7.3-.2h-6.7c0,0,0,5.5,0,5.5l.3,13.2h-5.3l.3-12.7-.3-29.6h22.5l.4.5-.5,4.2-9.7-.3h-7.4Z"/>
      <path class="st0" d="M731.3,527v4.8c0,5.2-1.3,9.2-4.2,12.1-2.8,2.9-6.8,4.4-12,4.4s-8.8-1.4-11.5-4.2c-2.7-2.8-4-6.7-3.9-11.7v-5.7c0,0,0-21.1,0-21.1h5.2l-.2,26.2c0,4,.8,6.9,2.6,8.9,1.8,2,4.5,3,8.1,3s6.3-.9,8.1-2.8c1.8-1.9,2.7-4.7,2.7-8.4l-.3-26.9h5.3v21.5Z"/>
      <path class="st0" d="M784.5,535.4v12.4c.1,0-5.4,0-5.4,0l-21.9-33.9h-.3v19.9c0,0,0,13.9,0,13.9h-4.8l.2-12.5v-29.8c-.1,0,5.3,0,5.3,0l21.8,33.9h.5v-33.6c0,0,4.9-.4,4.9-.4l-.3,30Z"/>
    </g>
    <g>
      <path class="st0" d="M216.9,166.6l-110.1,163.7c12.6-16.3,23.5-28.6,32.7-36.9,15.6-14.1,29.9-21.2,42.7-21.2s10.7,1.7,14.1,5.1c3.4,3.4,5.1,8.1,5.1,14.1s-8.1,21.6-24.2,41.6c-16.2,20-24.2,33.1-24.2,39.3s.7,4,2.1,5.6c1.4,1.6,3.2,2.4,5.3,2.4,12.6,0,29.4-10.5,50.4-31.5,17.1-16.9,30.5-33.2,40.1-48.8l2.2,1c-10.3,17.1-24,34.2-41.1,51.4-21.6,21.6-39.5,32.4-53.6,32.4s-10.1-1.8-13.5-5.5c-3.4-3.6-5.1-8.2-5.1-13.8,0-10.1,8.1-24.6,24.4-43.7,16.3-19,24.4-31.2,24.4-36.6s-.9-4.9-2.6-6.4c-1.7-1.5-4-2.2-6.7-2.2-13.9,0-33.2,14.2-57.8,42.7-20.5,23.8-35.2,44.7-44,62.9h-20.5c4.7-7.3,20.1-31,46.2-71.3,9.4-14.5,24.8-38.4,46.2-71.6,20.5-31.9,35.8-55.9,45.9-71.9l21.5-1Z"/>
      <path class="st0" d="M356.8,301.5c-10.5,18.8-26.3,36.9-47.5,54.2-23.8,19.5-44.9,29.2-63.6,29.2s-15.9-2.2-20.7-6.6-7.2-11-7.2-19.7c0-18.2,9.8-37.1,29.5-56.8,19.7-19.7,38.7-29.5,57.1-29.5s8.4,1.1,11.7,3.2c3.3,2.1,5,5.5,5,10,0,9.8-10.5,19.6-31.5,29.2-13.7,6.2-28.7,11.2-44.9,15.1-2.4,4.5-4.3,9.3-5.8,14.3-1.5,5-2.2,10-2.2,14.9s1.1,10.9,3.4,14.6c2.2,3.7,6.1,5.6,11.7,5.6,15.8,0,35-9.7,57.5-29.2,19-16.7,33.8-33.5,44.3-50.4l3.2,1.9ZM297.8,276.8c-7.9,0-17.8,6.3-29.5,18.9-9.8,10.7-17,20.8-21.5,30.2,12.6-2.8,24.5-7.3,35.6-13.5,15.4-8.6,23.1-17.7,23.1-27.3s-2.6-8.3-7.7-8.3Z"/>
      <path class="st0" d="M407.7,239.2l-24.3,35.6h40.8l-1.9,4.5h-41.7c-12.4,18.4-22.5,33.6-30.2,45.6-14.6,22.9-21.8,38-21.8,45.3s1.2,6.3,3.7,7.9c2.5,1.6,5.5,2.4,9.1,2.4,14.1,0,32-10.5,53.6-31.5,10.9-10.7,25.6-27.3,44-49.8l2.6,1.9c-21.2,25.8-36.3,43-45.3,51.6-22.3,21.5-41.2,32.2-56.8,32.2s-12.6-2.1-17.2-6.3c-4.6-4.2-6.9-9.6-6.9-16.3,0-10.3,8.7-28.3,26-54.1,6.6-9.7,13.3-19.3,19.9-29h-16.7l2.2-4.5h17.2c0,0,24.4-35.7,24.4-35.7h19.3Z"/>
      <path class="st0" d="M521.2,275h21.2c-20.5,28.8-32,45.1-34.3,48.7-16.7,25.2-25,41.5-25,48.7s2.6,8,7.7,8c13.7,0,33.6-15.5,59.7-46.5,10.9-13,19.9-24.8,27-35.3l2.2,1c-7.5,11.3-15.5,22.4-24.1,33.1-12.2,15.2-23.3,27.1-33.4,35.6-13.3,11.1-24.8,16.7-34.7,16.7s-9.4-1.3-12.7-4c-3.3-2.7-5-6.6-5-11.7s.5-6.3,1.6-10c.2-.4,1-2.4,2.2-5.8-12.2,10.9-20,17.7-23.4,20.2-10.5,7.5-19.9,11.2-28.2,11.2s-11.8-2.2-15.6-6.6c-3.7-4.4-5.6-10.1-5.6-17.2,0-17.5,9.5-36.7,28.6-57.5,19-20.8,37.3-31.1,54.9-31.1s22.7,6.7,26.3,20.2l10.6-17.8ZM431,376.9c13.7,0,28.8-10.9,45.3-32.6,15.8-20.9,23.8-38.6,23.8-53.1s-1.2-7.7-3.5-10.2c-2.4-2.6-5.7-3.8-9.9-3.8-14.8,0-29.7,10.7-44.9,32-14.3,20.1-21.5,37.8-21.5,53.1s.7,8.3,2.2,10.9c1.5,2.6,4.4,3.8,8.7,3.8Z"/>
      <path class="st0" d="M560.7,279.3v-4.5h24.1c21.6-34.9,37-57.8,46.2-68.7,22.9-27.2,45-40.8,66.4-40.8s11.6,1.4,16.2,4.2c4.6,2.8,6.9,7.2,6.9,13.2s-1.6,9.4-4.8,12.8c-3.2,3.4-7.4,5.1-12.5,5.1.9-3.6,1.5-6.7,2.1-9.4.5-2.6.8-5.2.8-7.8,0-9.1-4.3-13.7-12.8-13.7s-21.8,7-34.7,21.1c-9.4,10.2-20.2,25.2-32.4,44.8-7.7,13-15.4,26-23.1,39h70v4.5h-71.9c-25.7,44.5-41.3,71.1-46.9,79.6-21.6,33.6-42.6,59.3-62.9,77-26.7,23.3-53.8,35-81.2,35s-23.1-3-32.1-9c-10.5-7.1-15.7-16.5-15.7-28.2s3.3-18,10-22.6c6.6-4.6,15.5-6.9,26.6-6.9v2.9c-6.4,0-11.7,2.5-15.9,7.5-4.2,5-6.3,10.7-6.3,17.1,0,10.9,3.1,19.4,9.3,25.5,6.2,6.2,14.8,9.3,25.7,9.3,21.8,0,45.1-12.5,69.7-37.5,18.2-18.6,38-45,59.4-79.2,13.9-23.5,27.8-47,41.7-70.5h-21.8Z"/>
      <path class="st0" d="M679.8,274.8c-16.3,20.8-28.2,36.7-36,47.7-17.8,24.9-26.6,40.8-26.6,47.7s2.9,9.3,8.7,9.3c14.5,0,33.1-14.1,55.5-42.2,9.8-12.2,24.3-33.1,43.3-62.5h22.5c-12,16-23.9,32-35.6,47.8-17.1,24.4-25.7,40.8-25.7,49.1s2.8,8.7,8.3,8.7c13.5,0,33.5-15.3,60-45.9,10.5-12.2,19.7-23.9,27.6-35l3.5,1.3c-17.8,23.3-31.6,40.2-41.4,50.7-21.2,22.3-38.5,33.4-52,33.4s-10.4-1.6-14-4.7-5.3-7.5-5.3-13.3,1.6-13.7,4.8-19.3c-10.1,11-18.4,19.1-25,24.3-11.1,8.6-21.7,13-31.8,13s-10.4-1.3-13.8-4c-3.4-2.7-5.1-6.8-5.1-12.4,0-10.7,10.8-31.1,32.4-61.2,7.9-10.7,15.9-21.6,24.1-32.5h21.5Z"/>
    </g>
    <path class="st0" d="M549.8,68.2l-31.5-35.3h-60.4l-25.9,20.9v24.1l29.2-23.4c2.8-2.2,6.3-3.5,9.9-3.5h30.9c4.4,0,8.6,1.8,11.6,5l3.6,3.9c5,5.3,5.7,13.3,1.8,19.4l-37.6,58.6-111.8-103-4.7-4.7-3.7,4.5h0c0,.1-.1,0-.1,0l-68.6,83.5,41.2,33.1h58l37.2-37h-25.5l-16.5,16.5c-3,3-7,4.6-11.2,4.6h-30.8c-2.9,0-5.7-.8-8.2-2.3-.8-.5-1.6-1.1-2.3-1.7l-6.4-5.6c-6-5.3-7.1-14.3-2.6-20.9l40.6-58.9,112,103.2h0s5,4.6,5,4.6l3.5-4.6h0s63.1-81.1,63.1-81.1Z"/>
    <path class="st0" d="M803.1,261.9c-1.8,0-3.6-.3-5.3-.8-1.7-.6-3.2-1.4-4.6-2.4-1.4-1-2.6-2.2-3.6-3.6-1-1.4-1.8-2.9-2.4-4.6-.6-1.7-.8-3.4-.8-5.3s.3-3.6.8-5.3c.6-1.7,1.4-3.2,2.4-4.6,1-1.4,2.2-2.6,3.6-3.6,1.4-1,2.9-1.8,4.6-2.4s3.4-.8,5.3-.8,3.6.3,5.3.8c1.7.6,3.2,1.4,4.6,2.4,1.4,1,2.6,2.2,3.6,3.6,1,1.4,1.8,2.9,2.4,4.6.6,1.7.8,3.4.8,5.3s-.3,3.6-.8,5.3c-.6,1.7-1.4,3.2-2.4,4.6-1,1.4-2.2,2.6-3.6,3.6-1.4,1-2.9,1.8-4.6,2.4-1.7.6-3.4.8-5.3.8ZM803.1,259.5c1.6,0,3.1-.2,4.5-.7,1.4-.5,2.7-1.2,3.9-2,1.2-.9,2.2-1.9,3.1-3.1.9-1.2,1.5-2.5,2-3.9s.7-2.9.7-4.5-.2-3.1-.7-4.5-1.2-2.7-2-3.9c-.9-1.2-1.9-2.2-3.1-3.1-1.2-.9-2.5-1.6-3.9-2-1.4-.5-2.9-.7-4.5-.7s-3.1.2-4.5.7c-1.4.5-2.7,1.2-3.9,2-1.2.9-2.2,1.9-3.1,3.1-.9,1.2-1.6,2.5-2,3.9s-.7,2.9-.7,4.5.2,3.1.7,4.5,1.2,2.7,2,3.9c.9,1.2,1.9,2.2,3.1,3.1,1.2.9,2.5,1.6,3.9,2,1.4.5,2.9.7,4.5.7ZM796.9,254.1v-17.8h6.7c1.3,0,2.5.2,3.4.7s1.6,1.1,2.1,2c.5.9.7,1.9.7,3s-.2,2.1-.7,3-1.2,1.5-2.2,1.9c-.9.5-2.1.7-3.5.7h-4.8v-2.6h4.5c.8,0,1.4-.1,1.9-.3.5-.2.9-.6,1.1-1,.3-.4.4-1,.4-1.6s-.1-1.2-.4-1.6c-.3-.5-.6-.8-1.1-1-.5-.2-1.2-.4-2-.4h-3.1v15.1h-3.2ZM807,254.1l-4.3-8.1h3.5l4.4,8.1h-3.6Z"/>
  </g>
</svg>